<?xml version="1.0" encoding="UTF-8" standalone="no"?>
<!DOCTYPE svg PUBLIC "-//W3C//DTD SVG 1.1//EN" "http://www.w3.org/Graphics/SVG/1.1/DTD/svg11.dtd">
<svg width="100%" height="100%" viewBox="0 0 1000 1000" version="1.1" xmlns="http://www.w3.org/2000/svg" xmlns:xlink="http://www.w3.org/1999/xlink" xml:space="preserve" xmlns:serif="http://www.serif.com/" style="fill-rule:evenodd;clip-rule:evenodd;stroke-linejoin:round;stroke-miterlimit:2;">
    <g transform="matrix(5.564934,0,0,5.564934,-3167.87606,-7744.17361)">
        <g transform="matrix(0.176121,0,0,0.176121,493.001406,1123.803495)">
            <circle cx="1139.586" cy="1719.838" r="199.305" style="fill:rgb(254,102,3);"/>
        </g>
        <g transform="matrix(0.176121,0,0,0.176121,423.797589,1123.803495)">
            <circle cx="1139.586" cy="1719.838" r="199.305" style="fill:rgb(254,102,3);"/>
        </g>
        <g transform="matrix(1.48936,0,0,0.847408,-209.962448,-309.287798)">
            <path d="M630.319,2130.256L630.319,2177.8C630.319,2200.662 619.758,2219.223 606.75,2219.223C593.743,2219.223 583.182,2200.662 583.182,2177.8L583.182,2130.256C583.182,2107.395 593.743,2088.834 606.75,2088.834C619.758,2088.834 630.319,2107.395 630.319,2130.256Z" style="fill:rgb(254,102,3);"/>
        </g>
        <g transform="matrix(1.48936,0,0,0.847408,-279.166265,-309.287798)">
            <path d="M630.319,2130.256L630.319,2177.8C630.319,2200.662 619.758,2219.223 606.75,2219.223C593.743,2219.223 583.182,2200.662 583.182,2177.8L583.182,2130.256C583.182,2107.395 593.743,2088.834 606.75,2088.834C619.758,2088.834 630.319,2107.395 630.319,2130.256Z" style="fill:rgb(254,102,3);"/>
        </g>
    </g>
</svg>
